<svg width="240" height="241" viewBox="0 0 240 241" fill="none" xmlns="http://www.w3.org/2000/svg">
<g clip-path="url(#clip0_1_13)">
<path d="M0.701329 170.115C0.773261 170.116 29.2116 170.142 46.5153 190.69C63.8408 211.265 58.3757 240.14 58.3757 240.14H52.4453C52.4453 240.14 53.6081 214.422 40.0037 201.562C26.4168 188.72 0.768479 189.403 0.701329 189.404V170.115Z" fill="#000"/>
<path d="M239.073 189.404C239.006 189.403 213.358 188.72 199.771 201.562C186.166 214.422 187.329 240.14 187.329 240.14H181.399C181.399 240.14 175.934 211.265 193.259 190.69C210.563 170.142 239.001 170.116 239.073 170.115V189.404Z" fill="#000"/>
<path d="M-0.112793 96.4672C-0.112793 96.4672 40.2361 111.314 63.3756 153.632C86.515 195.951 79.032 240.023 79.032 240.023H70.8942C70.8942 240.023 75.4915 199.09 57.6313 170.399C39.771 141.708 -0.112793 134.222 -0.112793 134.222V96.4672Z" fill="#000"/>
<path d="M44.1897 0.139954C44.2238 0.193029 61.8527 27.659 84.9506 104.479C108.071 181.374 100.594 240.023 100.594 240.023H92.4632C92.4632 240.023 95.5711 184.494 72.5618 117.276C49.5629 50.0874 0.396689 40.9472 0.352323 40.9389L12.5618 9.49212L44.1897 0.139954Z" fill="#000"/>
<path d="M124.771 240.023H114.771L105.469 0.607562H134.073L124.771 240.023Z" fill="#000"/>
<path d="M227.213 9.49212L239.422 40.9389C239.378 40.9472 190.212 50.0875 167.213 117.276C144.204 184.494 147.311 240.023 147.311 240.023H139.18C139.18 240.023 131.703 181.374 154.824 104.479C177.944 27.5846 195.585 0.139954 195.585 0.139954L227.213 9.49212Z" fill="#000"/>
<path d="M239.887 134.222C239.887 134.222 200.003 141.708 182.143 170.399C164.283 199.09 168.88 240.023 168.88 240.023H160.742C160.742 240.023 153.259 195.951 176.399 153.632C199.538 111.314 239.887 96.4672 239.887 96.4672V134.222Z" fill="#000"/>
</g>
<defs>
<clipPath id="clip0_1_13">
<rect y="0.139954" width="240" height="240" rx="120" fill="black"/>
</clipPath>
</defs>
</svg>
